<svg xmlns="http://www.w3.org/2000/svg" width="524" height="214" viewBox="0 0 524 214">
  <title>image-examples</title>
  <g id="008731b5-1480-4b14-b223-e8c8a2b9cd76" data-name="base copy 2">
    <rect x="359.92" y="89" width="143" height="105" style="fill: #ff7d4a"/>
    <g>
      <circle cx="463.96" cy="158.04" r="32.96" style="fill: #668bff"/>
      <g>
        <path d="M438.91,157.63v0a3.11,3.11,0,0,1,3.19-3.15,3,3,0,0,1,2.57,1.26l-1.26,1a1.62,1.62,0,0,0-1.32-.71,1.5,1.5,0,0,0-1.44,1.6v0a1.5,1.5,0,0,0,1.44,1.62,1.65,1.65,0,0,0,1.37-.74l1.26.9a3.19,3.19,0,0,1-5.8-1.76Z" style="fill: #fcfcfc"/>
        <path d="M446,157.63v0a3.26,3.26,0,0,1,6.52,0v0a3.26,3.26,0,0,1-6.52,0Zm4.81,0v0a1.57,1.57,0,0,0-1.56-1.63,1.54,1.54,0,0,0-1.53,1.62v0a1.57,1.57,0,0,0,1.55,1.64A1.54,1.54,0,0,0,450.8,157.63Z" style="fill: #fcfcfc"/>
        <path d="M454.34,154.58h1.57l2.49,3.2v-3.2h1.66v6.06h-1.47L456,157.32v3.32h-1.66Z" style="fill: #fcfcfc"/>
        <path d="M463.55,156.05h-1.82v-1.47H467v1.47h-1.82v4.59h-1.68Z" style="fill: #fcfcfc"/>
        <path d="M468.76,154.58h4.87V156h-3.21v.92h2.91v1.32h-2.91v1h3.25v1.43h-4.91Z" style="fill: #fcfcfc"/>
        <path d="M475.48,154.58H477l2.49,3.2v-3.2h1.66v6.06h-1.47l-2.59-3.32v3.32h-1.66Z" style="fill: #fcfcfc"/>
        <path d="M484.7,156.05h-1.82v-1.47h5.31v1.47h-1.82v4.59H484.7Z" style="fill: #fcfcfc"/>
      </g>
    </g>
    <path d="M443.67,68.31,437,56.69c-2.73-4.45-4.45-7.33-6.08-10.37h-.16c-1.48,3-3,5.85-5.69,10.45l-6.32,11.54h-7.8L427,41.72l-15.44-26h7.88l6.94,12.32c2,3.43,3.43,6.08,4.84,8.89h.23c1.48-3.12,2.81-5.54,4.76-8.89l7.18-12.32h7.8l-16,25.58,16.38,27Z" style="fill: #c60000"/>
  </g>
  <g id="5e991dab-80d2-4647-a5ec-c36bfe2a30da" data-name="base copy 3">
    <rect x="189.92" y="89" width="143" height="105" style="fill: #ff7d4a"/>
    <g>
      <circle cx="261.42" cy="141.5" r="52.5" style="fill: #668bff"/>
      <g>
        <path d="M221.51,140.85v0a5,5,0,0,1,5.08-5,4.72,4.72,0,0,1,4.09,2l-2,1.56a2.58,2.58,0,0,0-2.11-1.13,2.38,2.38,0,0,0-2.3,2.55v0a2.38,2.38,0,0,0,2.3,2.57,2.63,2.63,0,0,0,2.17-1.17l2,1.43a5.07,5.07,0,0,1-9.24-2.81Z" style="fill: #fcfcfc"/>
        <path d="M232.8,140.85v0a5.19,5.19,0,0,1,10.38,0v0a5.19,5.19,0,0,1-10.38,0Zm7.65,0v0a2.5,2.5,0,0,0-2.48-2.6,2.46,2.46,0,0,0-2.44,2.57v0a2.5,2.5,0,0,0,2.46,2.6A2.46,2.46,0,0,0,240.45,140.85Z" style="fill: #fcfcfc"/>
        <path d="M246.09,136h2.49l4,5.09V136h2.64v9.63h-2.34l-4.12-5.29v5.29h-2.64Z" style="fill: #fcfcfc"/>
        <path d="M260.77,138.34h-2.89V136h8.45v2.34h-2.89v7.29h-2.67Z" style="fill: #fcfcfc"/>
        <path d="M269.07,136h7.75v2.27h-5.11v1.46h4.62v2.11h-4.62v1.53h5.17v2.27h-7.82Z" style="fill: #fcfcfc"/>
        <path d="M279.77,136h2.49l4,5.09V136h2.64v9.63h-2.34l-4.12-5.29v5.29h-2.64Z" style="fill: #fcfcfc"/>
        <path d="M294.45,138.34h-2.89V136H300v2.34h-2.89v7.29h-2.67Z" style="fill: #fcfcfc"/>
      </g>
    </g>
    <path d="M273.67,68.31,267,56.69c-2.73-4.45-4.45-7.33-6.08-10.37h-.16c-1.48,3-3,5.85-5.69,10.45l-6.32,11.54h-7.8L257,41.72l-15.44-26h7.88l6.94,12.32c2,3.43,3.43,6.08,4.84,8.89h.23c1.48-3.12,2.81-5.54,4.76-8.89l7.18-12.32h7.8l-16,25.58,16.38,27Z" style="fill: #c60000"/>
  </g>
  <g id="aaad2831-18c9-4d4f-8354-d5970e0bf43f" data-name="base copy">
    <rect x="19.92" y="89" width="143" height="105" style="fill: #ff7d4a"/>
    <g>
      <circle cx="91.42" cy="141.5" r="30.5" style="fill: #668bff"/>
      <g>
        <path d="M68.23,141.12v0a2.88,2.88,0,0,1,3-2.91,2.74,2.74,0,0,1,2.37,1.17l-1.17.9a1.5,1.5,0,0,0-1.22-.66,1.38,1.38,0,0,0-1.34,1.48v0a1.38,1.38,0,0,0,1.34,1.5,1.53,1.53,0,0,0,1.26-.68l1.17.83a2.95,2.95,0,0,1-5.37-1.63Z" style="fill: #fcfcfc"/>
        <path d="M74.79,141.12v0a3,3,0,0,1,6,0v0a3,3,0,0,1-6,0Zm4.45,0v0a1.45,1.45,0,0,0-1.44-1.51,1.43,1.43,0,0,0-1.42,1.5v0a1.45,1.45,0,0,0,1.43,1.51A1.43,1.43,0,0,0,79.24,141.12Z" style="fill: #fcfcfc"/>
        <path d="M82.51,138.3H84l2.3,3v-3H87.8v5.6H86.44L84,140.83v3.07H82.51Z" style="fill: #fcfcfc"/>
        <path d="M91,139.66H89.36V138.3h4.91v1.36H92.59v4.24H91Z" style="fill: #fcfcfc"/>
        <path d="M95.86,138.3h4.5v1.32h-3v.85h2.69v1.22H97.4v.89h3v1.32H95.86Z" style="fill: #fcfcfc"/>
        <path d="M102.08,138.3h1.45l2.3,3v-3h1.54v5.6H106l-2.39-3.07v3.07h-1.54Z" style="fill: #fcfcfc"/>
        <path d="M110.61,139.66h-1.68V138.3h4.91v1.36h-1.68v4.24h-1.55Z" style="fill: #fcfcfc"/>
      </g>
    </g>
    <path d="M83.55,69.89l-8.64-8.62L67.56,54q-3.68-3.62-8.64-8.59l5.64-5.69,19,18.94,40.58-40.47,5.59,5.75Z" style="fill: #19c900"/>
  </g>
</svg>
